<svg xmlns="http://www.w3.org/2000/svg" width="203" height="28" fill="none"><path fill="#000" d="M1.492 24V5.474h7.61c1.276 0 2.403.224 3.381.672.995.447 1.774 1.11 2.338 1.989.563.879.845 1.964.845 3.258 0 1.26-.29 2.329-.87 3.207-.564.879-1.343 1.55-2.338 2.015-.978.447-2.097.671-3.357.671H5.346V24H1.492Zm3.854-10.071h3.78c.812 0 1.459-.232 1.94-.696.497-.465.746-1.078.746-1.84 0-.78-.249-1.401-.746-1.865-.481-.465-1.128-.697-1.94-.697h-3.78v5.098Zm17.973 10.37c-1.343 0-2.57-.307-3.68-.92a7.03 7.03 0 0 1-2.612-2.512c-.646-1.078-.97-2.296-.97-3.656 0-1.376.324-2.594.97-3.655a7.031 7.031 0 0 1 2.611-2.512c1.111-.613 2.338-.92 3.68-.92 1.343 0 2.562.307 3.656.92a6.98 6.98 0 0 1 2.636 2.512c.646 1.06.97 2.28.97 3.655 0 1.36-.323 2.578-.97 3.656a6.98 6.98 0 0 1-2.636 2.511c-1.094.614-2.313.92-3.655.92Zm0-3.358c1.027 0 1.848-.348 2.462-1.044.63-.696.944-1.591.944-2.686 0-1.077-.315-1.964-.945-2.66-.613-.713-1.434-1.07-2.461-1.07-1.012 0-1.832.357-2.462 1.07-.63.696-.945 1.583-.945 2.66 0 1.095.315 1.99.945 2.686.63.696 1.45 1.044 2.462 1.044ZM32.072 24V10.423h3.482v2.039c.348-.846.837-1.418 1.467-1.716.646-.315 1.384-.473 2.213-.473h1.417v3.233h-1.79c-.912 0-1.65.282-2.213.846-.564.547-.846 1.326-.846 2.337V24h-3.73Zm16.83.15c-1.64 0-2.917-.44-3.83-1.319-.894-.895-1.342-2.138-1.342-3.73v-5.446h-2.337v-3.232h.174c1.442 0 2.163-.697 2.163-2.09V6.346h3.73v4.078h3.183v3.232H47.46v5.446c0 1.376.77 2.064 2.313 2.064.232 0 .522-.025.87-.074v2.934c-.547.083-1.127.124-1.74.124Zm4.31-.15V13.655H50.9v-3.232h2.313v-.398c0-1.608.472-2.852 1.417-3.73.945-.879 2.263-1.318 3.954-1.318.497 0 .937.041 1.318.124v3.183a5.36 5.36 0 0 0-.82-.074c-1.426 0-2.14.605-2.14 1.815v.398h2.935v3.232h-2.934V24h-3.73Zm14.207.298c-1.342 0-2.57-.306-3.68-.92a7.03 7.03 0 0 1-2.61-2.511c-.648-1.078-.97-2.296-.97-3.656 0-1.376.322-2.594.97-3.655a7.031 7.031 0 0 1 2.61-2.512c1.11-.613 2.338-.92 3.68-.92 1.343 0 2.562.307 3.656.92a6.98 6.98 0 0 1 2.636 2.512c.646 1.06.97 2.28.97 3.655 0 1.36-.324 2.578-.97 3.656a6.98 6.98 0 0 1-2.636 2.511c-1.094.614-2.313.92-3.656.92Zm0-3.357c1.028 0 1.849-.348 2.462-1.044.63-.696.945-1.591.945-2.686 0-1.077-.315-1.964-.945-2.66-.613-.713-1.434-1.07-2.462-1.07-1.01 0-1.831.357-2.461 1.07-.63.696-.945 1.583-.945 2.66 0 1.095.315 1.99.945 2.686.63.696 1.45 1.044 2.461 1.044ZM76.173 24V5.474h3.73V24h-3.73Zm5.968-14.796v-3.73h3.73v3.73h-3.73Zm0 14.796V10.423h3.73V24h-3.73Zm12.483.298c-1.343 0-2.57-.306-3.68-.92a7.032 7.032 0 0 1-2.611-2.511c-.647-1.078-.97-2.296-.97-3.656 0-1.376.323-2.594.97-3.655a7.032 7.032 0 0 1 2.611-2.512c1.11-.613 2.337-.92 3.68-.92s2.562.307 3.656.92a6.984 6.984 0 0 1 2.636 2.512c.646 1.06.969 2.28.969 3.655 0 1.36-.323 2.578-.969 3.656a6.984 6.984 0 0 1-2.636 2.511c-1.094.614-2.313.92-3.656.92Zm0-3.357c1.028 0 1.849-.348 2.462-1.044.63-.696.945-1.591.945-2.686 0-1.077-.315-1.964-.945-2.66-.613-.713-1.434-1.07-2.462-1.07-1.011 0-1.832.357-2.462 1.07-.63.696-.945 1.583-.945 2.66 0 1.095.316 1.99.945 2.686.63.696 1.451 1.044 2.462 1.044Zm21.95 3.357c-1.326 0-2.561-.24-3.705-.72a9.113 9.113 0 0 1-2.959-2.015 9.46 9.46 0 0 1-1.989-3.034c-.464-1.16-.696-2.428-.696-3.804s.232-2.644.696-3.805a8.799 8.799 0 0 1 1.964-3.034 8.794 8.794 0 0 1 2.959-1.989c1.144-.48 2.388-.721 3.73-.721 1.343 0 2.545.224 3.606.671 1.078.448 1.989 1.045 2.736 1.79.746.747 1.276 1.576 1.591 2.487l-3.407 1.641c-.315-.895-.87-1.632-1.666-2.213-.779-.596-1.732-.895-2.86-.895-1.094 0-2.055.257-2.884.771-.829.514-1.476 1.227-1.94 2.139-.447.895-.671 1.947-.671 3.158 0 1.21.224 2.27.671 3.183.464.911 1.111 1.624 1.94 2.138.829.514 1.79.771 2.884.771 1.128 0 2.081-.29 2.86-.87.796-.597 1.351-1.343 1.666-2.238l3.407 1.64c-.315.913-.845 1.742-1.591 2.488-.747.746-1.658 1.342-2.736 1.79-1.061.448-2.263.671-3.606.671Zm9.668-.298V10.423h3.481v2.039c.348-.846.837-1.418 1.467-1.716.647-.315 1.385-.473 2.213-.473h1.418v3.233h-1.791c-.911 0-1.649.282-2.213.846-.563.547-.845 1.326-.845 2.337V24h-3.73Zm16.195.298c-1.426 0-2.677-.315-3.755-.944a6.896 6.896 0 0 1-2.487-2.587c-.58-1.077-.87-2.27-.87-3.58 0-1.36.298-2.57.895-3.631a6.885 6.885 0 0 1 2.462-2.512c1.044-.613 2.213-.92 3.506-.92 1.277 0 2.421.299 3.432.896a6.731 6.731 0 0 1 2.412 2.412c.597.994.895 2.122.895 3.382 0 .265-.016.53-.05.795a2.348 2.348 0 0 1-.124.647h-9.549c.116.845.464 1.525 1.045 2.039.58.514 1.326.77 2.238.77.663 0 1.226-.132 1.691-.397.48-.265.853-.63 1.119-1.094l2.984 1.417c-.415.995-1.144 1.799-2.189 2.412-1.044.597-2.263.895-3.655.895Zm-.249-11.19c-.729 0-1.351.208-1.865.622-.514.415-.862 1.011-1.044 1.79h5.694c-.066-.729-.356-1.31-.87-1.74-.497-.448-1.136-.672-1.915-.672Zm12.263 11.19c-1.028 0-1.923-.174-2.685-.522-.746-.364-1.327-.845-1.741-1.442a3.668 3.668 0 0 1-.597-2.04c0-1.01.381-1.84 1.144-2.486.763-.663 1.832-1.135 3.208-1.417l4.252-.895v-.448c0-.514-.191-.92-.572-1.219-.381-.315-.887-.472-1.517-.472-.663 0-1.251.182-1.765.547-.498.348-.846.829-1.045 1.442l-3.207-1.541c.397-1.128 1.135-2.023 2.213-2.686 1.094-.663 2.362-.995 3.804-.995 1.161 0 2.172.207 3.034.622.879.414 1.558.995 2.039 1.74.497.73.746 1.584.746 2.562V24h-3.481v-1.243c-.514.547-1.086.945-1.716 1.193-.613.232-1.318.348-2.114.348Zm-1.168-4.053c0 .415.157.738.472.97.315.232.738.348 1.268.348.846 0 1.559-.265 2.139-.796.58-.53.87-1.177.87-1.94v-.646l-3.581.796c-.779.182-1.168.605-1.168 1.268Zm16.732 3.904c-1.641 0-2.917-.44-3.829-1.318-.895-.895-1.343-2.138-1.343-3.73v-5.446h-2.337v-3.232h.174c1.442 0 2.163-.697 2.163-2.09V6.346h3.73v4.078h3.183v3.232h-3.183v5.446c0 1.376.771 2.064 2.313 2.064.232 0 .522-.025.87-.074v2.934a11.62 11.62 0 0 1-1.741.124Zm9.757.15c-1.343 0-2.57-.307-3.681-.92a7.036 7.036 0 0 1-2.611-2.512c-.646-1.078-.969-2.296-.969-3.656 0-1.376.323-2.594.969-3.655a7.037 7.037 0 0 1 2.611-2.512c1.111-.613 2.338-.92 3.681-.92s2.561.307 3.655.92a6.974 6.974 0 0 1 2.636 2.512c.647 1.06.97 2.28.97 3.655 0 1.36-.323 2.578-.97 3.656a6.973 6.973 0 0 1-2.636 2.511c-1.094.614-2.312.92-3.655.92Zm0-3.358c1.028 0 1.848-.348 2.462-1.044.63-.696.944-1.591.944-2.686 0-1.077-.314-1.964-.944-2.66-.614-.713-1.434-1.07-2.462-1.07-1.012 0-1.832.357-2.462 1.07-.63.696-.945 1.583-.945 2.66 0 1.095.315 1.99.945 2.686.63.696 1.45 1.044 2.462 1.044ZM188.525 24V10.423h3.482v2.039c.348-.846.837-1.418 1.467-1.716.646-.315 1.384-.473 2.213-.473h1.417v3.233h-1.79c-.912 0-1.649.282-2.213.846-.564.547-.846 1.326-.846 2.337V24h-3.73Z"/><path fill="url(#a)" d="M197.244 24v-3.73h3.73V24h-3.73Z"/><defs><linearGradient id="a" x1="195.011" x2="202.186" y1="20.537" y2="20.53" gradientUnits="userSpaceOnUse"><stop offset=".198" stop-color="#B16CEA"/><stop offset=".557" stop-color="#FF5E69"/><stop offset=".828" stop-color="#FF8A56"/><stop offset="1" stop-color="#FFA84B"/></linearGradient></defs></svg>